<svg width="163" height="42" viewBox="0 0 163 42" fill="none" xmlns="http://www.w3.org/2000/svg">
<rect width="163" height="42" rx="21" fill="#68BCCA"/>
<g clip-path="url(#clip0_119_1648)">
<path d="M30 6C21.7287 6 15 12.7287 15 21C15 29.2713 21.7287 36 30 36C38.2713 36 45 29.2713 45 21C45 12.7287 38.2713 6 30 6ZM30 33.5C23.1075 33.5 17.5 27.8925 17.5 21C17.5 14.1075 23.1075 8.5 30 8.5C36.8925 8.5 42.5 14.1075 42.5 21C42.5 27.8925 36.8925 33.5 30 33.5ZM26.25 16H28.75V26H26.25V16ZM31.25 16H33.75V26H31.25V16Z" fill="white"/>
</g>
<path d="M71.8546 28V13.4545H77.3091C78.4266 13.4545 79.3641 13.6629 80.1216 14.0795C80.8839 14.4962 81.4592 15.0691 81.8475 15.7983C82.2405 16.5227 82.437 17.3466 82.437 18.2699C82.437 19.2027 82.2405 20.0312 81.8475 20.7557C81.4545 21.4801 80.8745 22.0507 80.1074 22.4673C79.3404 22.8793 78.3958 23.0852 77.2736 23.0852H73.6586V20.919H76.9185C77.5719 20.919 78.1069 20.8054 78.5236 20.5781C78.9403 20.3509 79.248 20.0384 79.4469 19.6406C79.6505 19.2429 79.7523 18.786 79.7523 18.2699C79.7523 17.7538 79.6505 17.2992 79.4469 16.9062C79.248 16.5133 78.9379 16.2079 78.5165 15.9901C78.0998 15.7675 77.5624 15.6562 76.9043 15.6562H74.4895V28H71.8546ZM87.5559 28.2202C86.8646 28.2202 86.242 28.0971 85.688 27.8509C85.1388 27.5999 84.7032 27.2306 84.3812 26.7429C84.064 26.2552 83.9054 25.6539 83.9054 24.9389C83.9054 24.3234 84.019 23.8144 84.2463 23.4119C84.4735 23.0095 84.7837 22.6875 85.1767 22.446C85.5697 22.2045 86.0124 22.0223 86.5048 21.8991C87.002 21.7713 87.5157 21.679 88.046 21.6222C88.6852 21.5559 89.2037 21.4967 89.6014 21.4446C89.9991 21.3878 90.2879 21.3026 90.4679 21.1889C90.6525 21.0705 90.7449 20.8883 90.7449 20.642V20.5994C90.7449 20.0644 90.5862 19.6501 90.269 19.3565C89.9518 19.063 89.4949 18.9162 88.8983 18.9162C88.2685 18.9162 87.769 19.0535 87.3997 19.3281C87.0351 19.6027 86.7889 19.9271 86.661 20.3011L84.2605 19.9602C84.4499 19.2973 84.7624 18.7434 85.198 18.2983C85.6336 17.8485 86.1663 17.5123 86.796 17.2898C87.4257 17.0625 88.1217 16.9489 88.8841 16.9489C89.4096 16.9489 89.9328 17.0104 90.4537 17.1335C90.9745 17.2566 91.4503 17.4602 91.8812 17.7443C92.3121 18.0237 92.6577 18.4048 92.9181 18.8878C93.1833 19.3707 93.3159 19.9744 93.3159 20.6989V28H90.8443V26.5014H90.7591C90.6028 26.8045 90.3826 27.0885 90.0985 27.3537C89.8192 27.6141 89.4664 27.8248 89.0403 27.9858C88.6189 28.142 88.1241 28.2202 87.5559 28.2202ZM88.2235 26.331C88.7396 26.331 89.1871 26.2292 89.5659 26.0256C89.9447 25.8172 90.2359 25.5426 90.4395 25.2017C90.6478 24.8608 90.752 24.4891 90.752 24.0866V22.8011C90.6715 22.8674 90.5342 22.929 90.34 22.9858C90.1506 23.0426 89.9376 23.0923 89.7008 23.1349C89.4641 23.1776 89.2297 23.2154 88.9977 23.2486C88.7657 23.2817 88.5645 23.3101 88.394 23.3338C88.0105 23.3859 87.6672 23.4711 87.3642 23.5895C87.0611 23.7079 86.822 23.8736 86.6468 24.0866C86.4717 24.295 86.3841 24.5649 86.3841 24.8963C86.3841 25.3698 86.5569 25.7273 86.9025 25.9688C87.2482 26.2102 87.6885 26.331 88.2235 26.331ZM102.854 23.4119V17.0909H105.425V28H102.932V26.0611H102.819C102.573 26.6719 102.168 27.1714 101.604 27.5597C101.046 27.9479 100.357 28.142 99.5375 28.142C98.8225 28.142 98.1904 27.9834 97.6412 27.6662C97.0967 27.3442 96.6705 26.8778 96.3627 26.267C96.055 25.6515 95.9011 24.9081 95.9011 24.0369V17.0909H98.4721V23.6392C98.4721 24.3305 98.6615 24.8797 99.0403 25.2869C99.4191 25.6941 99.9163 25.8977 100.532 25.8977C100.911 25.8977 101.278 25.8054 101.633 25.6207C101.988 25.4361 102.279 25.1615 102.506 24.7969C102.738 24.4276 102.854 23.9659 102.854 23.4119ZM116.691 19.9744L114.347 20.2301C114.281 19.9934 114.165 19.7708 113.999 19.5625C113.838 19.3542 113.621 19.1861 113.346 19.0582C113.071 18.9304 112.735 18.8665 112.338 18.8665C111.802 18.8665 111.353 18.9825 110.988 19.2145C110.628 19.4465 110.451 19.7472 110.455 20.1165C110.451 20.4337 110.567 20.6918 110.803 20.8906C111.045 21.0895 111.443 21.2528 111.997 21.3807L113.857 21.7784C114.89 22.0009 115.657 22.3537 116.159 22.8366C116.665 23.3196 116.921 23.9517 116.926 24.733C116.921 25.4195 116.72 26.0256 116.322 26.5511C115.929 27.072 115.382 27.4792 114.681 27.7727C113.981 28.0663 113.176 28.2131 112.267 28.2131C110.931 28.2131 109.856 27.9337 109.042 27.375C108.228 26.8116 107.742 26.0279 107.586 25.0241L110.093 24.7827C110.207 25.2751 110.448 25.6468 110.818 25.8977C111.187 26.1487 111.668 26.2741 112.259 26.2741C112.87 26.2741 113.36 26.1487 113.73 25.8977C114.104 25.6468 114.291 25.3366 114.291 24.9673C114.291 24.6548 114.17 24.3968 113.928 24.1932C113.692 23.9896 113.322 23.8333 112.82 23.7244L110.96 23.3338C109.913 23.116 109.139 22.7491 108.637 22.233C108.135 21.7121 107.887 21.054 107.892 20.2585C107.887 19.5862 108.069 19.0038 108.438 18.5114C108.812 18.0142 109.331 17.6307 109.994 17.3608C110.661 17.0862 111.431 16.9489 112.302 16.9489C113.58 16.9489 114.587 17.2211 115.32 17.7656C116.059 18.3101 116.516 19.0464 116.691 19.9744ZM123.875 28.2131C122.781 28.2131 121.837 27.9858 121.041 27.5312C120.251 27.072 119.642 26.4233 119.216 25.5852C118.79 24.7424 118.577 23.7505 118.577 22.6094C118.577 21.4872 118.79 20.5024 119.216 19.6548C119.647 18.8026 120.248 18.1397 121.02 17.6662C121.792 17.188 122.699 16.9489 123.74 16.9489C124.413 16.9489 125.047 17.0578 125.644 17.2756C126.245 17.4886 126.775 17.8201 127.235 18.2699C127.699 18.7197 128.063 19.2926 128.328 19.9886C128.593 20.6799 128.726 21.5038 128.726 22.4602V23.2486H119.784V21.5156H126.262C126.257 21.0232 126.15 20.5852 125.942 20.2017C125.734 19.8134 125.442 19.508 125.068 19.2855C124.699 19.063 124.268 18.9517 123.776 18.9517C123.25 18.9517 122.789 19.0795 122.391 19.3352C121.993 19.5862 121.683 19.9176 121.46 20.3295C121.243 20.7367 121.131 21.1842 121.127 21.6719V23.1847C121.127 23.8191 121.243 24.3636 121.475 24.8182C121.707 25.268 122.031 25.6136 122.448 25.8551C122.864 26.0919 123.352 26.2102 123.911 26.2102C124.285 26.2102 124.623 26.1581 124.926 26.054C125.229 25.9451 125.492 25.7865 125.715 25.5781C125.937 25.3698 126.105 25.1117 126.219 24.804L128.619 25.0739C128.468 25.7083 128.179 26.2623 127.753 26.7358C127.332 27.2045 126.792 27.5691 126.134 27.8295C125.476 28.0852 124.723 28.2131 123.875 28.2131Z" fill="white"/>
<defs>
<clipPath id="clip0_119_1648">
<rect width="30" height="30" fill="white" transform="translate(15 6)"/>
</clipPath>
</defs>
</svg>
