<svg width="163" height="42" viewBox="0 0 163 42" fill="none" xmlns="http://www.w3.org/2000/svg">
<rect width="163" height="42" rx="21" fill="#68BCCA"/>
<g clip-path="url(#clip0_119_1633)">
<path d="M32.45 21L27.5 23.785V18.2162L32.45 21.0013V21ZM45 21C45 29.2713 38.2713 36 30 36C21.7287 36 15 29.2713 15 21C15 12.7287 21.7287 6 30 6C38.2713 6 45 12.7287 45 21ZM37.55 21L25 13.9413V28.06L37.55 21.0013V21Z" fill="white"/>
</g>
<path d="M81.0831 28V13.4545H86.5376C87.6551 13.4545 88.5926 13.6629 89.3501 14.0795C90.1125 14.4962 90.6877 15.0691 91.076 15.7983C91.469 16.5227 91.6655 17.3466 91.6655 18.2699C91.6655 19.2027 91.469 20.0312 91.076 20.7557C90.683 21.4801 90.103 22.0507 89.3359 22.4673C88.5689 22.8793 87.6243 23.0852 86.5021 23.0852H82.8871V20.919H86.147C86.8004 20.919 87.3355 20.8054 87.7521 20.5781C88.1688 20.3509 88.4766 20.0384 88.6754 19.6406C88.879 19.2429 88.9808 18.786 88.9808 18.2699C88.9808 17.7538 88.879 17.2992 88.6754 16.9062C88.4766 16.5133 88.1664 16.2079 87.745 15.9901C87.3284 15.7675 86.791 15.6562 86.1328 15.6562H83.718V28H81.0831ZM96.4116 13.4545V28H93.8406V13.4545H96.4116ZM102.195 28.2202C101.503 28.2202 100.881 28.0971 100.327 27.8509C99.7775 27.5999 99.3419 27.2306 99.0199 26.7429C98.7027 26.2552 98.544 25.6539 98.544 24.9389C98.544 24.3234 98.6577 23.8144 98.8849 23.4119C99.1122 23.0095 99.4223 22.6875 99.8153 22.446C100.208 22.2045 100.651 22.0223 101.143 21.8991C101.641 21.7713 102.154 21.679 102.685 21.6222C103.324 21.5559 103.842 21.4967 104.24 21.4446C104.638 21.3878 104.927 21.3026 105.107 21.1889C105.291 21.0705 105.384 20.8883 105.384 20.642V20.5994C105.384 20.0644 105.225 19.6501 104.908 19.3565C104.59 19.063 104.134 18.9162 103.537 18.9162C102.907 18.9162 102.408 19.0535 102.038 19.3281C101.674 19.6027 101.428 19.9271 101.3 20.3011L98.8991 19.9602C99.0885 19.2973 99.401 18.7434 99.8366 18.2983C100.272 17.8485 100.805 17.5123 101.435 17.2898C102.064 17.0625 102.76 16.9489 103.523 16.9489C104.048 16.9489 104.571 17.0104 105.092 17.1335C105.613 17.2566 106.089 17.4602 106.52 17.7443C106.951 18.0237 107.296 18.4048 107.557 18.8878C107.822 19.3707 107.955 19.9744 107.955 20.6989V28H105.483V26.5014H105.398C105.241 26.8045 105.021 27.0885 104.737 27.3537C104.458 27.6141 104.105 27.8248 103.679 27.9858C103.258 28.142 102.763 28.2202 102.195 28.2202ZM102.862 26.331C103.378 26.331 103.826 26.2292 104.205 26.0256C104.583 25.8172 104.875 25.5426 105.078 25.2017C105.286 24.8608 105.391 24.4891 105.391 24.0866V22.8011C105.31 22.8674 105.173 22.929 104.979 22.9858C104.789 23.0426 104.576 23.0923 104.339 23.1349C104.103 23.1776 103.868 23.2154 103.636 23.2486C103.404 23.2817 103.203 23.3101 103.033 23.3338C102.649 23.3859 102.306 23.4711 102.003 23.5895C101.7 23.7079 101.461 23.8736 101.286 24.0866C101.11 24.295 101.023 24.5649 101.023 24.8963C101.023 25.3698 101.196 25.7273 101.541 25.9688C101.887 26.2102 102.327 26.331 102.862 26.331ZM111.747 32.0909C111.397 32.0909 111.072 32.0625 110.774 32.0057C110.481 31.9536 110.246 31.892 110.071 31.821L110.668 29.8182C111.042 29.9271 111.375 29.9792 111.669 29.9744C111.963 29.9697 112.221 29.8774 112.443 29.6974C112.67 29.5223 112.862 29.2287 113.018 28.8168L113.239 28.2273L109.283 17.0909H112.01L114.524 25.3295H114.638L117.159 17.0909H119.893L115.526 29.321C115.322 29.8987 115.052 30.3935 114.716 30.8054C114.38 31.2221 113.968 31.5393 113.48 31.7571C112.997 31.9796 112.42 32.0909 111.747 32.0909Z" fill="white"/>
<defs>
<clipPath id="clip0_119_1633">
<rect width="30" height="30" fill="white" transform="translate(15 6)"/>
</clipPath>
</defs>
</svg>
