<svg width="163" height="42" viewBox="0 0 163 42" fill="none" xmlns="http://www.w3.org/2000/svg">
<rect width="163" height="42" rx="21" fill="#68BCCA"/>
<g clip-path="url(#clip0_119_1638)">
<path d="M30 6C21.7287 6 15 12.7287 15 21C15 29.2713 21.7287 36 30 36C38.2713 36 45 29.2713 45 21C45 12.7287 38.2713 6 30 6ZM30 26C27.2387 26 25 23.7613 25 21C25 18.2387 27.2387 16 30 16C32.7613 16 35 18.2387 35 21C35 23.7613 32.7613 26 30 26Z" fill="white"/>
</g>
<path d="M67.1866 28V13.4545H72.6412C73.7586 13.4545 74.6961 13.6487 75.4537 14.0369C76.216 14.4252 76.7913 14.9697 77.1795 15.6705C77.5725 16.3665 77.769 17.1785 77.769 18.1065C77.769 19.0393 77.5701 19.849 77.1724 20.5355C76.7794 21.2173 76.1994 21.7453 75.4324 22.1193C74.6653 22.4886 73.7231 22.6733 72.6056 22.6733H68.7207V20.4858H72.2505C72.9039 20.4858 73.439 20.3958 73.8556 20.2159C74.2723 20.0312 74.5801 19.7637 74.7789 19.4134C74.9825 19.0582 75.0843 18.6226 75.0843 18.1065C75.0843 17.5904 74.9825 17.1501 74.7789 16.7855C74.5753 16.4162 74.2652 16.1368 73.8485 15.9474C73.4319 15.7533 72.8945 15.6562 72.2363 15.6562H69.8216V28H67.1866ZM74.7008 21.4091L78.3017 28H75.3613L71.8244 21.4091H74.7008ZM84.7541 28.2131C83.6603 28.2131 82.7157 27.9858 81.9203 27.5312C81.1296 27.072 80.5211 26.4233 80.095 25.5852C79.6689 24.7424 79.4558 23.7505 79.4558 22.6094C79.4558 21.4872 79.6689 20.5024 80.095 19.6548C80.5259 18.8026 81.1272 18.1397 81.899 17.6662C82.6708 17.188 83.5775 16.9489 84.6191 16.9489C85.2915 16.9489 85.926 17.0578 86.5225 17.2756C87.1239 17.4886 87.6542 17.8201 88.1135 18.2699C88.5775 18.7197 88.9421 19.2926 89.2072 19.9886C89.4724 20.6799 89.6049 21.5038 89.6049 22.4602V23.2486H80.6632V21.5156H87.1404C87.1357 21.0232 87.0292 20.5852 86.8208 20.2017C86.6125 19.8134 86.3213 19.508 85.9473 19.2855C85.5779 19.063 85.1471 18.9517 84.6547 18.9517C84.1291 18.9517 83.6674 19.0795 83.2697 19.3352C82.872 19.5862 82.5618 19.9176 82.3393 20.3295C82.1215 20.7367 82.0102 21.1842 82.0055 21.6719V23.1847C82.0055 23.8191 82.1215 24.3636 82.3535 24.8182C82.5855 25.268 82.9099 25.6136 83.3265 25.8551C83.7432 26.0919 84.2309 26.2102 84.7896 26.2102C85.1636 26.2102 85.5022 26.1581 85.8052 26.054C86.1083 25.9451 86.371 25.7865 86.5936 25.5781C86.8161 25.3698 86.9842 25.1117 87.0978 24.804L89.4984 25.0739C89.3469 25.7083 89.0581 26.2623 88.6319 26.7358C88.2105 27.2045 87.6708 27.5691 87.0126 27.8295C86.3545 28.0852 85.6016 28.2131 84.7541 28.2131ZM96.5385 28.2131C95.4495 28.2131 94.5144 27.974 93.7331 27.4957C92.9566 27.0175 92.3577 26.357 91.9363 25.5142C91.5196 24.6667 91.3113 23.6913 91.3113 22.5881C91.3113 21.4801 91.5243 20.5024 91.9505 19.6548C92.3766 18.8026 92.9779 18.1397 93.7544 17.6662C94.5357 17.188 95.459 16.9489 96.5243 16.9489C97.4097 16.9489 98.1934 17.1122 98.8752 17.4389C99.5617 17.7609 100.109 18.2178 100.516 18.8097C100.923 19.3968 101.155 20.0833 101.212 20.8693H98.7544C98.655 20.3437 98.4183 19.9058 98.0442 19.5554C97.6749 19.2003 97.1801 19.0227 96.5598 19.0227C96.0343 19.0227 95.5726 19.1648 95.1749 19.4489C94.7772 19.7282 94.467 20.1307 94.2445 20.6562C94.0267 21.1818 93.9178 21.8116 93.9178 22.5455C93.9178 23.2888 94.0267 23.928 94.2445 24.4631C94.4623 24.9934 94.7677 25.4029 95.1607 25.6918C95.5584 25.9759 96.0248 26.1179 96.5598 26.1179C96.9386 26.1179 97.2772 26.0469 97.5755 25.9048C97.8785 25.758 98.1318 25.5473 98.3354 25.2727C98.539 24.9981 98.6787 24.6643 98.7544 24.2713H101.212C101.15 25.0431 100.923 25.7273 100.53 26.3239C100.137 26.9157 99.602 27.3797 98.9249 27.7159C98.2478 28.0473 97.4524 28.2131 96.5385 28.2131ZM108.081 28.2131C107.016 28.2131 106.093 27.9787 105.312 27.5099C104.53 27.0412 103.924 26.3854 103.493 25.5426C103.067 24.6998 102.854 23.715 102.854 22.5881C102.854 21.4612 103.067 20.474 103.493 19.6264C103.924 18.7789 104.53 18.1207 105.312 17.652C106.093 17.1832 107.016 16.9489 108.081 16.9489C109.147 16.9489 110.07 17.1832 110.851 17.652C111.633 18.1207 112.236 18.7789 112.662 19.6264C113.093 20.474 113.309 21.4612 113.309 22.5881C113.309 23.715 113.093 24.6998 112.662 25.5426C112.236 26.3854 111.633 27.0412 110.851 27.5099C110.07 27.9787 109.147 28.2131 108.081 28.2131ZM108.096 26.1534C108.673 26.1534 109.156 25.9948 109.545 25.6776C109.933 25.3556 110.222 24.9247 110.411 24.3849C110.605 23.8452 110.702 23.2438 110.702 22.581C110.702 21.9134 110.605 21.3097 110.411 20.7699C110.222 20.2254 109.933 19.7921 109.545 19.4702C109.156 19.1482 108.673 18.9872 108.096 18.9872C107.504 18.9872 107.011 19.1482 106.618 19.4702C106.23 19.7921 105.939 20.2254 105.745 20.7699C105.555 21.3097 105.461 21.9134 105.461 22.581C105.461 23.2438 105.555 23.8452 105.745 24.3849C105.939 24.9247 106.23 25.3556 106.618 25.6776C107.011 25.9948 107.504 26.1534 108.096 26.1534ZM115.491 28V17.0909H117.984V18.9091H118.097C118.296 18.2794 118.637 17.794 119.12 17.4531C119.608 17.1075 120.164 16.9347 120.789 16.9347C120.931 16.9347 121.09 16.9418 121.265 16.956C121.445 16.9654 121.594 16.982 121.713 17.0057V19.3707C121.604 19.3329 121.431 19.2997 121.194 19.2713C120.962 19.2382 120.737 19.2216 120.519 19.2216C120.051 19.2216 119.629 19.3234 119.255 19.527C118.886 19.7259 118.595 20.0028 118.382 20.358C118.169 20.7131 118.062 21.1226 118.062 21.5866V28H115.491ZM127.02 28.1918C126.163 28.1918 125.396 27.9716 124.719 27.5312C124.041 27.0909 123.506 26.4517 123.113 25.6136C122.72 24.7756 122.524 23.7576 122.524 22.5597C122.524 21.3475 122.723 20.3248 123.121 19.4915C123.523 18.6534 124.065 18.0213 124.747 17.5952C125.429 17.1643 126.189 16.9489 127.027 16.9489C127.666 16.9489 128.192 17.0578 128.604 17.2756C129.015 17.4886 129.342 17.7467 129.584 18.0497C129.825 18.348 130.012 18.6297 130.145 18.8949H130.251V13.4545H132.829V28H130.301V26.2812H130.145C130.012 26.5464 129.82 26.8281 129.569 27.1264C129.318 27.42 128.987 27.6709 128.575 27.8793C128.163 28.0876 127.645 28.1918 127.02 28.1918ZM127.737 26.0824C128.282 26.0824 128.746 25.9356 129.129 25.642C129.513 25.3437 129.804 24.9295 130.003 24.3991C130.202 23.8688 130.301 23.2509 130.301 22.5455C130.301 21.84 130.202 21.2268 130.003 20.706C129.809 20.1851 129.52 19.7803 129.136 19.4915C128.757 19.2027 128.291 19.0582 127.737 19.0582C127.164 19.0582 126.686 19.2074 126.302 19.5057C125.919 19.804 125.63 20.2159 125.436 20.7415C125.242 21.267 125.145 21.8684 125.145 22.5455C125.145 23.2273 125.242 23.8357 125.436 24.3707C125.635 24.901 125.926 25.3201 126.309 25.6278C126.698 25.9309 127.174 26.0824 127.737 26.0824Z" fill="white"/>
<defs>
<clipPath id="clip0_119_1638">
<rect width="30" height="30" fill="white" transform="translate(15 6)"/>
</clipPath>
</defs>
</svg>
