<svg width="163" height="42" viewBox="0 0 163 42" fill="none" xmlns="http://www.w3.org/2000/svg">
<rect width="163" height="42" rx="21" fill="#68BCCA"/>
<g clip-path="url(#clip0_119_1643)">
<path d="M32.45 21L27.5 23.785V18.2162L32.45 21.0013V21ZM45 21C45 29.2713 38.2713 36 30 36C21.7287 36 15 29.2713 15 21C15 12.7287 21.7287 6 30 6C38.2713 6 45 12.7287 45 21ZM37.55 21L25 13.9413V28.06L37.55 21.0013V21Z" fill="white"/>
</g>
<path d="M62.6065 28V13.4545H68.0611C69.1785 13.4545 70.116 13.6487 70.8736 14.0369C71.6359 14.4252 72.2112 14.9697 72.5994 15.6705C72.9924 16.3665 73.1889 17.1785 73.1889 18.1065C73.1889 19.0393 72.9901 19.849 72.5923 20.5355C72.1993 21.2173 71.6193 21.7453 70.8523 22.1193C70.0852 22.4886 69.143 22.6733 68.0256 22.6733H64.1406V20.4858H67.6705C68.3239 20.4858 68.8589 20.3958 69.2756 20.2159C69.6922 20.0312 70 19.7637 70.1989 19.4134C70.4025 19.0582 70.5043 18.6226 70.5043 18.1065C70.5043 17.5904 70.4025 17.1501 70.1989 16.7855C69.9953 16.4162 69.6851 16.1368 69.2685 15.9474C68.8518 15.7533 68.3144 15.6562 67.6562 15.6562H65.2415V28H62.6065ZM70.1207 21.4091L73.7216 28H70.7812L67.2443 21.4091H70.1207ZM80.174 28.2131C79.0803 28.2131 78.1357 27.9858 77.3402 27.5312C76.5495 27.072 75.9411 26.4233 75.5149 25.5852C75.0888 24.7424 74.8757 23.7505 74.8757 22.6094C74.8757 21.4872 75.0888 20.5024 75.5149 19.6548C75.9458 18.8026 76.5471 18.1397 77.3189 17.6662C78.0907 17.188 78.9974 16.9489 80.0391 16.9489C80.7114 16.9489 81.3459 17.0578 81.9425 17.2756C82.5438 17.4886 83.0741 17.8201 83.5334 18.2699C83.9974 18.7197 84.362 19.2926 84.6271 19.9886C84.8923 20.6799 85.0249 21.5038 85.0249 22.4602V23.2486H76.0831V21.5156H82.5604C82.5556 21.0232 82.4491 20.5852 82.2408 20.2017C82.0324 19.8134 81.7412 19.508 81.3672 19.2855C80.9979 19.063 80.567 18.9517 80.0746 18.9517C79.549 18.9517 79.0874 19.0795 78.6896 19.3352C78.2919 19.5862 77.9818 19.9176 77.7592 20.3295C77.5414 20.7367 77.4302 21.1842 77.4254 21.6719V23.1847C77.4254 23.8191 77.5414 24.3636 77.7734 24.8182C78.0054 25.268 78.3298 25.6136 78.7464 25.8551C79.1631 26.0919 79.6508 26.2102 80.2095 26.2102C80.5836 26.2102 80.9221 26.1581 81.2251 26.054C81.5282 25.9451 81.791 25.7865 82.0135 25.5781C82.236 25.3698 82.4041 25.1117 82.5178 24.804L84.9183 25.0739C84.7668 25.7083 84.478 26.2623 84.0518 26.7358C83.6304 27.2045 83.0907 27.5691 82.4325 27.8295C81.7744 28.0852 81.0215 28.2131 80.174 28.2131ZM95.8221 19.9744L93.4783 20.2301C93.4121 19.9934 93.296 19.7708 93.1303 19.5625C92.9693 19.3542 92.7515 19.1861 92.4769 19.0582C92.2023 18.9304 91.8661 18.8665 91.4684 18.8665C90.9334 18.8665 90.4835 18.9825 90.119 19.2145C89.7591 19.4465 89.5816 19.7472 89.5863 20.1165C89.5816 20.4337 89.6976 20.6918 89.9343 20.8906C90.1758 21.0895 90.5735 21.2528 91.1275 21.3807L92.9883 21.7784C94.0205 22.0009 94.7875 22.3537 95.2894 22.8366C95.796 23.3196 96.0517 23.9517 96.0565 24.733C96.0517 25.4195 95.8505 26.0256 95.4528 26.5511C95.0598 27.072 94.5129 27.4792 93.8121 27.7727C93.1114 28.0663 92.3065 28.2131 91.3974 28.2131C90.0621 28.2131 88.9873 27.9337 88.1729 27.375C87.3585 26.8116 86.8732 26.0279 86.717 25.0241L89.2241 24.7827C89.3377 25.2751 89.5792 25.6468 89.9485 25.8977C90.3178 26.1487 90.7984 26.2741 91.3903 26.2741C92.0011 26.2741 92.4911 26.1487 92.8604 25.8977C93.2345 25.6468 93.4215 25.3366 93.4215 24.9673C93.4215 24.6548 93.3008 24.3968 93.0593 24.1932C92.8226 23.9896 92.4532 23.8333 91.9513 23.7244L90.0906 23.3338C89.0442 23.116 88.27 22.7491 87.7681 22.233C87.2662 21.7121 87.0176 21.054 87.0224 20.2585C87.0176 19.5862 87.1999 19.0038 87.5692 18.5114C87.9433 18.0142 88.4618 17.6307 89.1246 17.3608C89.7923 17.0862 90.5617 16.9489 91.4329 16.9489C92.7113 16.9489 93.7174 17.2211 94.4513 17.7656C95.19 18.3101 95.6469 19.0464 95.8221 19.9744ZM105.13 23.4119V17.0909H107.701V28H105.208V26.0611H105.094C104.848 26.6719 104.443 27.1714 103.88 27.5597C103.321 27.9479 102.632 28.142 101.813 28.142C101.098 28.142 100.466 27.9834 99.9165 27.6662C99.372 27.3442 98.9459 26.8778 98.6381 26.267C98.3304 25.6515 98.1765 24.9081 98.1765 24.0369V17.0909H100.748V23.6392C100.748 24.3305 100.937 24.8797 101.316 25.2869C101.694 25.6941 102.192 25.8977 102.807 25.8977C103.186 25.8977 103.553 25.8054 103.908 25.6207C104.263 25.4361 104.554 25.1615 104.782 24.7969C105.014 24.4276 105.13 23.9659 105.13 23.4119ZM110.344 28V17.0909H112.802V18.9446H112.93C113.157 18.3196 113.533 17.8319 114.059 17.4815C114.585 17.1264 115.212 16.9489 115.941 16.9489C116.68 16.9489 117.302 17.1288 117.809 17.4886C118.32 17.8437 118.68 18.3291 118.888 18.9446H119.002C119.244 18.3385 119.651 17.8556 120.224 17.4957C120.801 17.1312 121.486 16.9489 122.276 16.9489C123.28 16.9489 124.099 17.2661 124.734 17.9006C125.368 18.535 125.685 19.4607 125.685 20.6776V28H123.107V21.0753C123.107 20.3982 122.927 19.9034 122.567 19.5909C122.208 19.2737 121.767 19.1151 121.246 19.1151C120.626 19.1151 120.141 19.3092 119.79 19.6974C119.445 20.081 119.272 20.5805 119.272 21.196V28H116.751V20.9688C116.751 20.4053 116.58 19.9555 116.239 19.6193C115.903 19.2831 115.463 19.1151 114.918 19.1151C114.549 19.1151 114.213 19.2098 113.91 19.3991C113.607 19.5838 113.365 19.8466 113.185 20.1875C113.005 20.5237 112.915 20.9167 112.915 21.3665V28H110.344ZM133.123 28.2131C132.029 28.2131 131.085 27.9858 130.289 27.5312C129.499 27.072 128.89 26.4233 128.464 25.5852C128.038 24.7424 127.825 23.7505 127.825 22.6094C127.825 21.4872 128.038 20.5024 128.464 19.6548C128.895 18.8026 129.496 18.1397 130.268 17.6662C131.04 17.188 131.947 16.9489 132.988 16.9489C133.661 16.9489 134.295 17.0578 134.892 17.2756C135.493 17.4886 136.023 17.8201 136.483 18.2699C136.947 18.7197 137.311 19.2926 137.576 19.9886C137.842 20.6799 137.974 21.5038 137.974 22.4602V23.2486H129.032V21.5156H135.51C135.505 21.0232 135.398 20.5852 135.19 20.2017C134.982 19.8134 134.69 19.508 134.316 19.2855C133.947 19.063 133.516 18.9517 133.024 18.9517C132.498 18.9517 132.037 19.0795 131.639 19.3352C131.241 19.5862 130.931 19.9176 130.708 20.3295C130.491 20.7367 130.379 21.1842 130.375 21.6719V23.1847C130.375 23.8191 130.491 24.3636 130.723 24.8182C130.955 25.268 131.279 25.6136 131.696 25.8551C132.112 26.0919 132.6 26.2102 133.159 26.2102C133.533 26.2102 133.871 26.1581 134.174 26.054C134.477 25.9451 134.74 25.7865 134.963 25.5781C135.185 25.3698 135.353 25.1117 135.467 24.804L137.868 25.0739C137.716 25.7083 137.427 26.2623 137.001 26.7358C136.58 27.2045 136.04 27.5691 135.382 27.8295C134.724 28.0852 133.971 28.2131 133.123 28.2131Z" fill="white"/>
<defs>
<clipPath id="clip0_119_1643">
<rect width="30" height="30" fill="white" transform="translate(15 6)"/>
</clipPath>
</defs>
</svg>
