<svg width="163" height="42" viewBox="0 0 163 42" fill="none" xmlns="http://www.w3.org/2000/svg">
<rect width="163" height="42" rx="21" fill="#68BCCA"/>
<g clip-path="url(#clip0_120_1658)">
<path d="M30 6C21.7287 6 15 12.7287 15 21C15 29.2713 21.7287 36 30 36C38.2713 36 45 29.2713 45 21C45 12.7287 38.2713 6 30 6ZM30 33.5C23.1075 33.5 17.5 27.8925 17.5 21C17.5 14.1075 23.1075 8.5 30 8.5C36.8925 8.5 42.5 14.1075 42.5 21C42.5 27.8925 36.8925 33.5 30 33.5ZM23.75 27.25H36.25V14.75H23.75V27.25ZM26.25 17.25H33.75V24.75H26.25V17.25Z" fill="white"/>
</g>
<path d="M86.7711 17.4531C86.7048 16.8329 86.4255 16.3499 85.9331 16.0043C85.4454 15.6586 84.8109 15.4858 84.0297 15.4858C83.4804 15.4858 83.0093 15.5687 82.6163 15.7344C82.2233 15.9001 81.9226 16.125 81.7143 16.4091C81.506 16.6932 81.3994 17.0175 81.3947 17.3821C81.3947 17.6851 81.4634 17.9479 81.6007 18.1705C81.7427 18.393 81.9345 18.5824 82.176 18.7386C82.4174 18.8902 82.685 19.018 82.9785 19.1222C83.2721 19.2263 83.568 19.3139 83.8663 19.3849L85.2299 19.7259C85.7792 19.8537 86.3071 20.0265 86.8137 20.2443C87.3251 20.4621 87.782 20.7367 88.1845 21.0682C88.5917 21.3996 88.9136 21.7997 89.1504 22.2685C89.3871 22.7372 89.5055 23.2865 89.5055 23.9162C89.5055 24.7685 89.2877 25.5189 88.8521 26.1676C88.4165 26.8116 87.7868 27.3158 86.9629 27.6804C86.1438 28.0402 85.1518 28.2202 83.987 28.2202C82.8554 28.2202 81.8729 28.045 81.0396 27.6946C80.211 27.3442 79.5623 26.8329 79.0936 26.1605C78.6296 25.4882 78.3786 24.669 78.3407 23.7031H80.9331C80.9709 24.2098 81.1272 24.6312 81.4018 24.9673C81.6764 25.3035 82.0339 25.5545 82.4743 25.7202C82.9193 25.8859 83.4165 25.9688 83.9657 25.9688C84.5386 25.9688 85.0405 25.8835 85.4714 25.7131C85.907 25.5379 86.2479 25.2964 86.4941 24.9886C86.7404 24.6761 86.8658 24.3116 86.8706 23.8949C86.8658 23.5161 86.7546 23.2036 86.5368 22.9574C86.319 22.7064 86.0136 22.4981 85.6206 22.3324C85.2323 22.1619 84.7778 22.0104 84.2569 21.8778L82.6021 21.4517C81.4042 21.1439 80.4572 20.6776 79.7612 20.0526C79.0699 19.4228 78.7243 18.5871 78.7243 17.5455C78.7243 16.6884 78.9563 15.938 79.4203 15.294C79.889 14.6501 80.5259 14.1506 81.3308 13.7955C82.1357 13.4356 83.0472 13.2557 84.0652 13.2557C85.0974 13.2557 86.0017 13.4356 86.7782 13.7955C87.5595 14.1506 88.1726 14.6454 88.6177 15.2798C89.0628 15.9096 89.2924 16.634 89.3066 17.4531H86.7711ZM97.1884 17.0909V19.0795H90.9171V17.0909H97.1884ZM92.4654 14.4773H95.0364V24.7188C95.0364 25.0644 95.0885 25.3295 95.1926 25.5142C95.3016 25.6941 95.4436 25.8172 95.6188 25.8835C95.794 25.9498 95.9881 25.983 96.2012 25.983C96.3622 25.983 96.5089 25.9711 96.6415 25.9474C96.7788 25.9238 96.883 25.9025 96.954 25.8835L97.3873 27.8935C97.2499 27.9408 97.0534 27.9929 96.7978 28.0497C96.5468 28.1065 96.2391 28.1397 95.8745 28.1491C95.2305 28.1681 94.6505 28.071 94.1344 27.858C93.6183 27.6402 93.2087 27.304 92.9057 26.8494C92.6074 26.3949 92.4606 25.8267 92.4654 25.1449V14.4773ZM103.98 28.2131C102.915 28.2131 101.991 27.9787 101.21 27.5099C100.429 27.0412 99.8227 26.3854 99.3919 25.5426C98.9657 24.6998 98.7527 23.715 98.7527 22.5881C98.7527 21.4612 98.9657 20.474 99.3919 19.6264C99.8227 18.7789 100.429 18.1207 101.21 17.652C101.991 17.1832 102.915 16.9489 103.98 16.9489C105.045 16.9489 105.969 17.1832 106.75 17.652C107.531 18.1207 108.135 18.7789 108.561 19.6264C108.992 20.474 109.207 21.4612 109.207 22.5881C109.207 23.715 108.992 24.6998 108.561 25.5426C108.135 26.3854 107.531 27.0412 106.75 27.5099C105.969 27.9787 105.045 28.2131 103.98 28.2131ZM103.994 26.1534C104.572 26.1534 105.055 25.9948 105.443 25.6776C105.831 25.3556 106.12 24.9247 106.309 24.3849C106.504 23.8452 106.601 23.2438 106.601 22.581C106.601 21.9134 106.504 21.3097 106.309 20.7699C106.12 20.2254 105.831 19.7921 105.443 19.4702C105.055 19.1482 104.572 18.9872 103.994 18.9872C103.402 18.9872 102.91 19.1482 102.517 19.4702C102.129 19.7921 101.837 20.2254 101.643 20.7699C101.454 21.3097 101.359 21.9134 101.359 22.581C101.359 23.2438 101.454 23.8452 101.643 24.3849C101.837 24.9247 102.129 25.3556 102.517 25.6776C102.91 25.9948 103.402 26.1534 103.994 26.1534ZM111.389 32.0909V17.0909H113.918V18.8949H114.067C114.2 18.6297 114.387 18.348 114.628 18.0497C114.869 17.7467 115.196 17.4886 115.608 17.2756C116.02 17.0578 116.546 16.9489 117.185 16.9489C118.028 16.9489 118.788 17.1643 119.465 17.5952C120.146 18.0213 120.686 18.6534 121.084 19.4915C121.486 20.3248 121.688 21.3475 121.688 22.5597C121.688 23.7576 121.491 24.7756 121.098 25.6136C120.705 26.4517 120.17 27.0909 119.493 27.5312C118.816 27.9716 118.049 28.1918 117.192 28.1918C116.567 28.1918 116.048 28.0876 115.637 27.8793C115.225 27.6709 114.893 27.42 114.642 27.1264C114.396 26.8281 114.204 26.5464 114.067 26.2812H113.96V32.0909H111.389ZM113.911 22.5455C113.911 23.2509 114.01 23.8688 114.209 24.3991C114.413 24.9295 114.704 25.3437 115.083 25.642C115.466 25.9356 115.93 26.0824 116.475 26.0824C117.043 26.0824 117.519 25.9309 117.902 25.6278C118.286 25.3201 118.575 24.901 118.769 24.3707C118.968 23.8357 119.067 23.2273 119.067 22.5455C119.067 21.8684 118.97 21.267 118.776 20.7415C118.582 20.2159 118.293 19.804 117.909 19.5057C117.526 19.2074 117.048 19.0582 116.475 19.0582C115.925 19.0582 115.459 19.2027 115.075 19.4915C114.692 19.7803 114.401 20.1851 114.202 20.706C114.008 21.2268 113.911 21.84 113.911 22.5455Z" fill="white"/>
<defs>
<clipPath id="clip0_120_1658">
<rect width="30" height="30" fill="white" transform="translate(15 6)"/>
</clipPath>
</defs>
</svg>
